<svg xmlns="http://www.w3.org/2000/svg" version="1.1" x="0" y="0" width="54" height="54" viewBox="0" enable-background="new 0 0 54 54" xml:space="preserve"><path fill="#C7D1E2" d="M27 0C20.1 0 13.9 2.6 9.1 6.8l2.7 1.8C16 5.2 21.2 3.2 27 3.2 40.2 3.2 50.9 13.9 50.9 27c0 13.1-10.7 23.8-23.9 23.8C13.8 50.8 3.1 40.1 3.1 27c0-6.6 2.7-12.5 7-16.8L8.7 7.2C3.4 12.2 0 19.2 0 27c0 14.9 12.1 27 27 27 14.9 0 27-12.1 27-27C54 12.1 41.9 0 27 0zM5.8 27c0 5.9 2.8 11.2 5.9 14.9l1.6-1.2 3.9-5 -0.9-1.7 -4.6 3.2C9.7 34.3 8.6 30.8 8.6 27c0-4.4 1.6-8.4 4.1-11.6l-1.2-2.5C8 16.7 5.8 21.6 5.8 27zM13.1 11.4l-1-0.7 1.2 2.5 0.4 0.9 0 0 6.9 14.1c0.2 1 0.6 1.8 1.3 2.5 1.1 1.3 2.7 2 4.3 2h0c1.4 0 2.7-0.5 3.8-1.4 1.2-1 1.9-2.4 2-4 0.1-1.5-0.4-3-1.4-4.2 -0.6-0.7-1.4-1.3-2.3-1.6L15.3 12.9h0L13.1 11.4 13.1 11.4zM37.4 34.2l-0.4 1.7 4.2 4.7 1.6 1.3c3.1-3.8 5.7-9.1 5.7-14.9C48.4 15.6 38.5 6.3 27 6.3c-4.6 0-9 1.5-12.5 4.1l2.2 1.4c2.9-2 6.5-3.2 10.2-3.2 3.4 0 6.7 1 9.6 2.7 5.3 3.2 8.9 9 8.9 15.7 0 3.8-1.1 7.3-3.1 10.2L37.4 34.2z"/></svg>