<svg xmlns="http://www.w3.org/2000/svg" version="1.1" x="0" y="0" width="76" height="54" viewBox="0" enable-background="new 0 0 76 54" xml:space="preserve"><path fill="#C7D1E2" d="M61.55 19.12C60.51 8.4 51.48 0 40.37 0c-8.6 0-15.95 5.04-19.35 12.28 -1.02-0.32-2.08-0.54-3.21-0.54 -5.9 0-10.69 4.73-10.69 10.57 0 1.16 0.24 2.26 0.59 3.3C3.12 28.25 0 33.1 0 38.73c0 8.43 6.91 15.26 15.44 15.26V54h42.75v0C68.03 54 76 46.11 76 36.39 76 27.8 69.78 20.67 61.55 19.12zM58.19 49.3v0.01h-42.75C9.55 49.3 4.75 44.56 4.75 38.73c0-3.76 2-7.15 5.35-9.08 3.26-1.85 3.48-2.21 2.11-5.53 -0.23-0.68-0.34-1.28-0.34-1.81 0-3.24 2.66-5.87 5.94-5.87 0 0 1.56-0.11 3.21 0.54 2.73 1.07 3.02 0.05 4.31-2.72 2.73-5.8 8.63-9.56 15.04-9.56 8.55 0 15.62 6.39 16.45 14.87 0.29 3.36 0.29 3.36 3.84 4.16 6.14 1.16 10.6 6.49 10.6 12.66C71.25 43.51 65.39 49.3 58.19 49.3zM30.19 34.81l1.34-1.87 -1.47-1.47 -1.87 1.34c-0.35-0.19-0.72-0.35-1.11-0.46L26.7 30.08h-2.08l-0.38 2.27c-0.39 0.11-0.76 0.27-1.11 0.46l-1.87-1.34 -1.47 1.47 1.34 1.88c-0.19 0.35-0.35 0.72-0.46 1.11l-2.27 0.38v2.07l2.27 0.38c0.11 0.39 0.27 0.76 0.46 1.11l-1.34 1.88 1.47 1.47 1.88-1.34c0.35 0.19 0.72 0.35 1.11 0.46l0.38 2.27H26.7l0.38-2.27c0.39-0.11 0.76-0.27 1.11-0.46l1.88 1.34 1.47-1.47 -1.34-1.87c0.19-0.35 0.35-0.72 0.46-1.11l2.27-0.38v-2.07l-2.27-0.38C30.54 35.53 30.39 35.16 30.19 34.81zM25.66 39.41c-1.15 0-2.08-0.93-2.08-2.07s0.93-2.07 2.08-2.07 2.07 0.93 2.07 2.07S26.81 39.41 25.66 39.41zM49.26 20.61l1.86-1.2 -0.79-1.92 -2.17 0.47c-0.14-0.22-0.28-0.44-0.44-0.65l1.26-1.83 -1.47-1.47 -1.83 1.26c-0.21-0.15-0.43-0.3-0.65-0.44l0.47-2.17 -1.92-0.79 -1.2 1.87c-0.25-0.06-0.51-0.11-0.77-0.15L41.23 11.4H39.15l-0.4 2.19c-0.26 0.04-0.52 0.09-0.77 0.15l-1.2-1.87 -1.92 0.79 0.47 2.17c-0.22 0.14-0.44 0.28-0.65 0.44l-1.83-1.26 -1.47 1.47 1.26 1.83c-0.15 0.21-0.3 0.43-0.44 0.65l-2.17-0.47 -0.79 1.92 1.87 1.2c-0.06 0.25-0.11 0.51-0.15 0.77l-2.18 0.4v2.08l2.19 0.4c0.04 0.26 0.09 0.52 0.15 0.77l-1.87 1.2 0.79 1.92 2.17-0.47c0.14 0.22 0.28 0.44 0.44 0.65l-1.26 1.83 1.47 1.47 1.83-1.27c0.21 0.15 0.43 0.3 0.65 0.44l-0.47 2.17 1.92 0.8 1.2-1.87c0.25 0.06 0.51 0.11 0.77 0.15l0.4 2.19h2.07l0.4-2.18c0.26-0.04 0.52-0.09 0.77-0.15l1.2 1.86 1.92-0.79 -0.47-2.17c0.23-0.14 0.44-0.28 0.65-0.44l1.83 1.27 1.47-1.47 -1.26-1.83c0.15-0.21 0.3-0.43 0.44-0.65l2.17 0.47 0.79-1.92 -1.86-1.2c0.06-0.25 0.11-0.51 0.15-0.77l2.19-0.4v-2.08l-2.18-0.4C49.38 21.12 49.32 20.86 49.26 20.61zM40.19 27.33c-2.49 0-4.51-2.02-4.51-4.51s2.02-4.51 4.51-4.51c2.49 0 4.51 2.02 4.51 4.51S42.68 27.33 40.19 27.33z"/></svg>