<svg xmlns="http://www.w3.org/2000/svg" version="1.1" x="0" y="0" width="54" height="54" viewBox="0" enable-background="new 0 0 54 54" xml:space="preserve"><path fill="#C7D1E2" d="M26.6 0C11.7 0.2-0.2 12.5 0 27.4c0.2 14.9 12.4 26.8 27.4 26.6 14.9-0.2 26.8-12.4 26.6-27.4C53.8 11.7 41.5-0.2 26.6 0zM26.7 3.5c4-0.1 7.8 0.9 11.2 2.6l-3.6 6.1c-2.2-1.1-4.6-1.7-7.2-1.7s-5 0.6-7.2 1.7l-3.6-6.1C19.3 4.5 22.9 3.6 26.7 3.5zM12.2 34.2l-6.1 3.6c-1.6-3.2-2.6-6.7-2.6-10.5 -0.1-4 0.9-7.8 2.6-11.2l6.1 3.6c-1.1 2.2-1.7 4.6-1.7 7.2S11.2 32 12.2 34.2zM27.3 50.5c-4 0.1-7.8-0.9-11.2-2.6l3.6-6.1c2.2 1.1 4.6 1.7 7.2 1.7 2.6 0 5-0.6 7.2-1.7l3.6 6.1C34.7 49.5 31.1 50.4 27.3 50.5zM27 39.9c-7.1 0-12.9-5.8-12.9-12.9S19.9 14.1 27 14.1 39.9 19.9 39.9 27 34.1 39.9 27 39.9zM41.8 34.2c1.1-2.2 1.7-4.6 1.7-7.2s-0.6-5-1.7-7.2l6.1-3.6c1.6 3.2 2.6 6.7 2.7 10.5 0.1 4-0.9 7.8-2.6 11.2L41.8 34.2z"/></svg>