<svg xmlns="http://www.w3.org/2000/svg" version="1.1" x="0" y="0" width="54" height="54" viewBox="0" enable-background="new 0 0 54 54" xml:space="preserve"><path fill="#C7D1E2" d="M53.2 0.43c-0.64-0.5-1.52-0.57-2.24-0.18L1.08 27.27c-0.73 0.4-1.15 1.19-1.07 2.02 0.08 0.82 0.66 1.52 1.46 1.76l13.29 3.99c0.5 3.96 1.68 13.28 1.91 15.09 0.26 2.06 1.69 2.4 3.08 0.5 0.93-1.27 6.28-8.85 6.44-9.06L38.02 53.4c0.39 0.39 0.92 0.6 1.46 0.6 0.18 0 0.37-0.02 0.55-0.07 0.72-0.2 1.27-0.77 1.44-1.48L53.94 2.56C54.14 1.77 53.85 0.93 53.2 0.43zM38.35 47.92L26.58 36.14l17.05-23.69 -26.57 18.98L7.39 28.53l41.42-22.44L38.35 47.92z"/></svg>